<svg width="138" height="42" viewBox="0 0 138 42" fill="none" xmlns="http://www.w3.org/2000/svg">
<mask id="path-1-outside-1" maskUnits="userSpaceOnUse" x="0" y="0" width="138" height="42" fill="black">
<rect fill="white" width="138" height="42"/>
<path d="M3 37.56V13.752H8.472L9.048 18.216C9.912 16.68 11.08 15.464 12.552 14.568C14.056 13.64 15.816 13.176 17.832 13.176V19.656H16.104C14.76 19.656 13.56 19.864 12.504 20.28C11.448 20.696 10.616 21.416 10.008 22.44C9.432 23.464 9.144 24.888 9.144 26.712V37.56H3Z"/>
<path d="M29.1774 38.136C26.7774 38.136 24.6494 37.624 22.7934 36.6C20.9374 35.576 19.4814 34.136 18.4254 32.28C17.3694 30.424 16.8414 28.28 16.8414 25.848C16.8414 23.384 17.3534 21.192 18.3774 19.272C19.4334 17.352 20.8734 15.864 22.6974 14.808C24.5534 13.72 26.7294 13.176 29.2254 13.176C31.5614 13.176 33.6254 13.688 35.4174 14.712C37.2094 15.736 38.6014 17.144 39.5934 18.936C40.6174 20.696 41.1294 22.664 41.1294 24.84C41.1294 25.192 41.1134 25.56 41.0814 25.944C41.0814 26.328 41.0654 26.728 41.0334 27.144H22.9374C23.0654 29 23.7054 30.456 24.8574 31.512C26.0414 32.568 27.4654 33.096 29.1294 33.096C30.3774 33.096 31.4174 32.824 32.2494 32.28C33.1134 31.704 33.7534 30.968 34.1694 30.072H40.4094C39.9614 31.576 39.2094 32.952 38.1534 34.2C37.1294 35.416 35.8494 36.376 34.3134 37.08C32.8094 37.784 31.0974 38.136 29.1774 38.136ZM29.2254 18.168C27.7214 18.168 26.3934 18.6 25.2414 19.464C24.0894 20.296 23.3534 21.576 23.0334 23.304H34.8894C34.7934 21.736 34.2174 20.488 33.1614 19.56C32.1054 18.632 30.7934 18.168 29.2254 18.168Z"/>
<path d="M56.4089 38.136C54.6169 38.136 53.0489 37.8 51.7049 37.128C50.3609 36.456 49.2729 35.512 48.4409 34.296L47.7689 37.56H42.2969V3H48.4409V17.16C49.2089 16.104 50.2169 15.176 51.4649 14.376C52.7449 13.576 54.3929 13.176 56.4089 13.176C58.6489 13.176 60.6489 13.72 62.4089 14.808C64.1689 15.896 65.5609 17.384 66.5849 19.272C67.6089 21.16 68.1209 23.304 68.1209 25.704C68.1209 28.104 67.6089 30.248 66.5849 32.136C65.5609 33.992 64.1689 35.464 62.4089 36.552C60.6489 37.608 58.6489 38.136 56.4089 38.136ZM55.1129 32.76C57.0649 32.76 58.6809 32.104 59.9609 30.792C61.2409 29.48 61.8809 27.784 61.8809 25.704C61.8809 23.624 61.2409 21.912 59.9609 20.568C58.6809 19.224 57.0649 18.552 55.1129 18.552C53.1289 18.552 51.4969 19.224 50.2169 20.568C48.9689 21.88 48.3449 23.576 48.3449 25.656C48.3449 27.736 48.9689 29.448 50.2169 30.792C51.4969 32.104 53.1289 32.76 55.1129 32.76Z"/>
<path d="M77.8174 38.136C75.7694 38.136 74.0894 37.816 72.7774 37.176C71.4654 36.504 70.4894 35.624 69.8494 34.536C69.2094 33.448 68.8894 32.248 68.8894 30.936C68.8894 28.728 69.7534 26.936 71.4814 25.56C73.2094 24.184 75.8014 23.496 79.2574 23.496H85.3054V22.92C85.3054 21.288 84.8414 20.088 83.9134 19.32C82.9854 18.552 81.8334 18.168 80.4574 18.168C79.2094 18.168 78.1214 18.472 77.1934 19.08C76.2654 19.656 75.6894 20.52 75.4654 21.672H69.4654C69.6254 19.944 70.2014 18.44 71.1934 17.16C72.2174 15.88 73.5294 14.904 75.1294 14.232C76.7294 13.528 78.5214 13.176 80.5054 13.176C83.8974 13.176 86.5694 14.024 88.5214 15.72C90.4734 17.416 91.4494 19.816 91.4494 22.92V37.56H86.2174L85.6414 33.72C84.9374 35 83.9454 36.056 82.6654 36.888C81.4174 37.72 79.8014 38.136 77.8174 38.136ZM79.2094 33.336C80.9694 33.336 82.3294 32.76 83.2894 31.608C84.2814 30.456 84.9054 29.032 85.1614 27.336H79.9294C78.2974 27.336 77.1294 27.64 76.4254 28.248C75.7214 28.824 75.3694 29.544 75.3694 30.408C75.3694 31.336 75.7214 32.056 76.4254 32.568C77.1294 33.08 78.0574 33.336 79.2094 33.336Z"/>
<path d="M103.153 38.136C101.041 38.136 99.1845 37.8 97.5845 37.128C95.9845 36.424 94.7045 35.464 93.7445 34.248C92.7845 33.032 92.2085 31.624 92.0165 30.024H98.2085C98.4005 30.952 98.9125 31.752 99.7445 32.424C100.608 33.064 101.713 33.384 103.057 33.384C104.401 33.384 105.377 33.112 105.985 32.568C106.625 32.024 106.945 31.4 106.945 30.696C106.945 29.672 106.497 28.984 105.601 28.632C104.705 28.248 103.456 27.88 101.856 27.528C100.832 27.304 99.7925 27.032 98.7365 26.712C97.6805 26.392 96.7045 25.992 95.8085 25.512C94.9445 25 94.2405 24.36 93.6965 23.592C93.1525 22.792 92.8805 21.816 92.8805 20.664C92.8805 18.552 93.7125 16.776 95.3765 15.336C97.0725 13.896 99.4405 13.176 102.48 13.176C105.296 13.176 107.536 13.832 109.201 15.144C110.897 16.456 111.905 18.264 112.225 20.568H106.417C106.065 18.808 104.737 17.928 102.433 17.928C101.281 17.928 100.384 18.152 99.7445 18.6C99.1365 19.048 98.8325 19.608 98.8325 20.28C98.8325 20.984 99.2965 21.544 100.225 21.96C101.153 22.376 102.385 22.76 103.921 23.112C105.585 23.496 107.104 23.928 108.48 24.408C109.888 24.856 111.008 25.544 111.84 26.472C112.672 27.368 113.089 28.664 113.089 30.36C113.121 31.832 112.737 33.16 111.937 34.344C111.137 35.528 109.984 36.456 108.48 37.128C106.976 37.8 105.201 38.136 103.153 38.136Z"/>
<path d="M124.371 38.136C122.259 38.136 120.403 37.8 118.803 37.128C117.203 36.424 115.923 35.464 114.963 34.248C114.003 33.032 113.427 31.624 113.235 30.024H119.427C119.619 30.952 120.131 31.752 120.963 32.424C121.827 33.064 122.931 33.384 124.275 33.384C125.619 33.384 126.595 33.112 127.203 32.568C127.843 32.024 128.163 31.4 128.163 30.696C128.163 29.672 127.715 28.984 126.819 28.632C125.923 28.248 124.675 27.88 123.075 27.528C122.051 27.304 121.011 27.032 119.955 26.712C118.899 26.392 117.923 25.992 117.027 25.512C116.163 25 115.459 24.36 114.915 23.592C114.371 22.792 114.099 21.816 114.099 20.664C114.099 18.552 114.931 16.776 116.595 15.336C118.291 13.896 120.659 13.176 123.699 13.176C126.515 13.176 128.755 13.832 130.419 15.144C132.115 16.456 133.123 18.264 133.443 20.568H127.635C127.283 18.808 125.955 17.928 123.651 17.928C122.499 17.928 121.603 18.152 120.963 18.6C120.355 19.048 120.051 19.608 120.051 20.28C120.051 20.984 120.515 21.544 121.443 21.96C122.371 22.376 123.603 22.76 125.139 23.112C126.803 23.496 128.323 23.928 129.699 24.408C131.107 24.856 132.227 25.544 133.059 26.472C133.891 27.368 134.307 28.664 134.307 30.36C134.339 31.832 133.955 33.16 133.155 34.344C132.355 35.528 131.203 36.456 129.699 37.128C128.195 37.8 126.419 38.136 124.371 38.136Z"/>
</mask>
<path d="M3 37.56V13.752H8.472L9.048 18.216C9.912 16.68 11.08 15.464 12.552 14.568C14.056 13.64 15.816 13.176 17.832 13.176V19.656H16.104C14.76 19.656 13.56 19.864 12.504 20.28C11.448 20.696 10.616 21.416 10.008 22.44C9.432 23.464 9.144 24.888 9.144 26.712V37.56H3Z" fill="white"/>
<path d="M29.1774 38.136C26.7774 38.136 24.6494 37.624 22.7934 36.6C20.9374 35.576 19.4814 34.136 18.4254 32.28C17.3694 30.424 16.8414 28.28 16.8414 25.848C16.8414 23.384 17.3534 21.192 18.3774 19.272C19.4334 17.352 20.8734 15.864 22.6974 14.808C24.5534 13.72 26.7294 13.176 29.2254 13.176C31.5614 13.176 33.6254 13.688 35.4174 14.712C37.2094 15.736 38.6014 17.144 39.5934 18.936C40.6174 20.696 41.1294 22.664 41.1294 24.84C41.1294 25.192 41.1134 25.56 41.0814 25.944C41.0814 26.328 41.0654 26.728 41.0334 27.144H22.9374C23.0654 29 23.7054 30.456 24.8574 31.512C26.0414 32.568 27.4654 33.096 29.1294 33.096C30.3774 33.096 31.4174 32.824 32.2494 32.28C33.1134 31.704 33.7534 30.968 34.1694 30.072H40.4094C39.9614 31.576 39.2094 32.952 38.1534 34.2C37.1294 35.416 35.8494 36.376 34.3134 37.08C32.8094 37.784 31.0974 38.136 29.1774 38.136ZM29.2254 18.168C27.7214 18.168 26.3934 18.6 25.2414 19.464C24.0894 20.296 23.3534 21.576 23.0334 23.304H34.8894C34.7934 21.736 34.2174 20.488 33.1614 19.56C32.1054 18.632 30.7934 18.168 29.2254 18.168Z" fill="white"/>
<path d="M56.4089 38.136C54.6169 38.136 53.0489 37.8 51.7049 37.128C50.3609 36.456 49.2729 35.512 48.4409 34.296L47.7689 37.56H42.2969V3H48.4409V17.16C49.2089 16.104 50.2169 15.176 51.4649 14.376C52.7449 13.576 54.3929 13.176 56.4089 13.176C58.6489 13.176 60.6489 13.72 62.4089 14.808C64.1689 15.896 65.5609 17.384 66.5849 19.272C67.6089 21.16 68.1209 23.304 68.1209 25.704C68.1209 28.104 67.6089 30.248 66.5849 32.136C65.5609 33.992 64.1689 35.464 62.4089 36.552C60.6489 37.608 58.6489 38.136 56.4089 38.136ZM55.1129 32.76C57.0649 32.76 58.6809 32.104 59.9609 30.792C61.2409 29.48 61.8809 27.784 61.8809 25.704C61.8809 23.624 61.2409 21.912 59.9609 20.568C58.6809 19.224 57.0649 18.552 55.1129 18.552C53.1289 18.552 51.4969 19.224 50.2169 20.568C48.9689 21.88 48.3449 23.576 48.3449 25.656C48.3449 27.736 48.9689 29.448 50.2169 30.792C51.4969 32.104 53.1289 32.76 55.1129 32.76Z" fill="white"/>
<path d="M77.8174 38.136C75.7694 38.136 74.0894 37.816 72.7774 37.176C71.4654 36.504 70.4894 35.624 69.8494 34.536C69.2094 33.448 68.8894 32.248 68.8894 30.936C68.8894 28.728 69.7534 26.936 71.4814 25.56C73.2094 24.184 75.8014 23.496 79.2574 23.496H85.3054V22.92C85.3054 21.288 84.8414 20.088 83.9134 19.32C82.9854 18.552 81.8334 18.168 80.4574 18.168C79.2094 18.168 78.1214 18.472 77.1934 19.08C76.2654 19.656 75.6894 20.52 75.4654 21.672H69.4654C69.6254 19.944 70.2014 18.44 71.1934 17.16C72.2174 15.88 73.5294 14.904 75.1294 14.232C76.7294 13.528 78.5214 13.176 80.5054 13.176C83.8974 13.176 86.5694 14.024 88.5214 15.72C90.4734 17.416 91.4494 19.816 91.4494 22.92V37.56H86.2174L85.6414 33.72C84.9374 35 83.9454 36.056 82.6654 36.888C81.4174 37.72 79.8014 38.136 77.8174 38.136ZM79.2094 33.336C80.9694 33.336 82.3294 32.76 83.2894 31.608C84.2814 30.456 84.9054 29.032 85.1614 27.336H79.9294C78.2974 27.336 77.1294 27.64 76.4254 28.248C75.7214 28.824 75.3694 29.544 75.3694 30.408C75.3694 31.336 75.7214 32.056 76.4254 32.568C77.1294 33.08 78.0574 33.336 79.2094 33.336Z" fill="white"/>
<path d="M103.153 38.136C101.041 38.136 99.1845 37.8 97.5845 37.128C95.9845 36.424 94.7045 35.464 93.7445 34.248C92.7845 33.032 92.2085 31.624 92.0165 30.024H98.2085C98.4005 30.952 98.9125 31.752 99.7445 32.424C100.608 33.064 101.713 33.384 103.057 33.384C104.401 33.384 105.377 33.112 105.985 32.568C106.625 32.024 106.945 31.4 106.945 30.696C106.945 29.672 106.497 28.984 105.601 28.632C104.705 28.248 103.456 27.88 101.856 27.528C100.832 27.304 99.7925 27.032 98.7365 26.712C97.6805 26.392 96.7045 25.992 95.8085 25.512C94.9445 25 94.2405 24.36 93.6965 23.592C93.1525 22.792 92.8805 21.816 92.8805 20.664C92.8805 18.552 93.7125 16.776 95.3765 15.336C97.0725 13.896 99.4405 13.176 102.48 13.176C105.296 13.176 107.536 13.832 109.201 15.144C110.897 16.456 111.905 18.264 112.225 20.568H106.417C106.065 18.808 104.737 17.928 102.433 17.928C101.281 17.928 100.384 18.152 99.7445 18.6C99.1365 19.048 98.8325 19.608 98.8325 20.28C98.8325 20.984 99.2965 21.544 100.225 21.96C101.153 22.376 102.385 22.76 103.921 23.112C105.585 23.496 107.104 23.928 108.48 24.408C109.888 24.856 111.008 25.544 111.84 26.472C112.672 27.368 113.089 28.664 113.089 30.36C113.121 31.832 112.737 33.16 111.937 34.344C111.137 35.528 109.984 36.456 108.48 37.128C106.976 37.8 105.201 38.136 103.153 38.136Z" fill="white"/>
<path d="M124.371 38.136C122.259 38.136 120.403 37.8 118.803 37.128C117.203 36.424 115.923 35.464 114.963 34.248C114.003 33.032 113.427 31.624 113.235 30.024H119.427C119.619 30.952 120.131 31.752 120.963 32.424C121.827 33.064 122.931 33.384 124.275 33.384C125.619 33.384 126.595 33.112 127.203 32.568C127.843 32.024 128.163 31.4 128.163 30.696C128.163 29.672 127.715 28.984 126.819 28.632C125.923 28.248 124.675 27.88 123.075 27.528C122.051 27.304 121.011 27.032 119.955 26.712C118.899 26.392 117.923 25.992 117.027 25.512C116.163 25 115.459 24.36 114.915 23.592C114.371 22.792 114.099 21.816 114.099 20.664C114.099 18.552 114.931 16.776 116.595 15.336C118.291 13.896 120.659 13.176 123.699 13.176C126.515 13.176 128.755 13.832 130.419 15.144C132.115 16.456 133.123 18.264 133.443 20.568H127.635C127.283 18.808 125.955 17.928 123.651 17.928C122.499 17.928 121.603 18.152 120.963 18.6C120.355 19.048 120.051 19.608 120.051 20.28C120.051 20.984 120.515 21.544 121.443 21.96C122.371 22.376 123.603 22.76 125.139 23.112C126.803 23.496 128.323 23.928 129.699 24.408C131.107 24.856 132.227 25.544 133.059 26.472C133.891 27.368 134.307 28.664 134.307 30.36C134.339 31.832 133.955 33.16 133.155 34.344C132.355 35.528 131.203 36.456 129.699 37.128C128.195 37.8 126.419 38.136 124.371 38.136Z" fill="white"/>
<path d="M3 37.56V13.752H8.472L9.048 18.216C9.912 16.68 11.08 15.464 12.552 14.568C14.056 13.64 15.816 13.176 17.832 13.176V19.656H16.104C14.76 19.656 13.56 19.864 12.504 20.28C11.448 20.696 10.616 21.416 10.008 22.44C9.432 23.464 9.144 24.888 9.144 26.712V37.56H3Z" stroke="white" stroke-width="6" mask="url(#path-1-outside-1)"/>
<path d="M29.1774 38.136C26.7774 38.136 24.6494 37.624 22.7934 36.6C20.9374 35.576 19.4814 34.136 18.4254 32.28C17.3694 30.424 16.8414 28.28 16.8414 25.848C16.8414 23.384 17.3534 21.192 18.3774 19.272C19.4334 17.352 20.8734 15.864 22.6974 14.808C24.5534 13.72 26.7294 13.176 29.2254 13.176C31.5614 13.176 33.6254 13.688 35.4174 14.712C37.2094 15.736 38.6014 17.144 39.5934 18.936C40.6174 20.696 41.1294 22.664 41.1294 24.84C41.1294 25.192 41.1134 25.56 41.0814 25.944C41.0814 26.328 41.0654 26.728 41.0334 27.144H22.9374C23.0654 29 23.7054 30.456 24.8574 31.512C26.0414 32.568 27.4654 33.096 29.1294 33.096C30.3774 33.096 31.4174 32.824 32.2494 32.28C33.1134 31.704 33.7534 30.968 34.1694 30.072H40.4094C39.9614 31.576 39.2094 32.952 38.1534 34.2C37.1294 35.416 35.8494 36.376 34.3134 37.08C32.8094 37.784 31.0974 38.136 29.1774 38.136ZM29.2254 18.168C27.7214 18.168 26.3934 18.6 25.2414 19.464C24.0894 20.296 23.3534 21.576 23.0334 23.304H34.8894C34.7934 21.736 34.2174 20.488 33.1614 19.56C32.1054 18.632 30.7934 18.168 29.2254 18.168Z" stroke="white" stroke-width="6" mask="url(#path-1-outside-1)"/>
<path d="M56.4089 38.136C54.6169 38.136 53.0489 37.8 51.7049 37.128C50.3609 36.456 49.2729 35.512 48.4409 34.296L47.7689 37.56H42.2969V3H48.4409V17.16C49.2089 16.104 50.2169 15.176 51.4649 14.376C52.7449 13.576 54.3929 13.176 56.4089 13.176C58.6489 13.176 60.6489 13.72 62.4089 14.808C64.1689 15.896 65.5609 17.384 66.5849 19.272C67.6089 21.16 68.1209 23.304 68.1209 25.704C68.1209 28.104 67.6089 30.248 66.5849 32.136C65.5609 33.992 64.1689 35.464 62.4089 36.552C60.6489 37.608 58.6489 38.136 56.4089 38.136ZM55.1129 32.76C57.0649 32.76 58.6809 32.104 59.9609 30.792C61.2409 29.48 61.8809 27.784 61.8809 25.704C61.8809 23.624 61.2409 21.912 59.9609 20.568C58.6809 19.224 57.0649 18.552 55.1129 18.552C53.1289 18.552 51.4969 19.224 50.2169 20.568C48.9689 21.88 48.3449 23.576 48.3449 25.656C48.3449 27.736 48.9689 29.448 50.2169 30.792C51.4969 32.104 53.1289 32.76 55.1129 32.76Z" stroke="white" stroke-width="6" mask="url(#path-1-outside-1)"/>
<path d="M77.8174 38.136C75.7694 38.136 74.0894 37.816 72.7774 37.176C71.4654 36.504 70.4894 35.624 69.8494 34.536C69.2094 33.448 68.8894 32.248 68.8894 30.936C68.8894 28.728 69.7534 26.936 71.4814 25.56C73.2094 24.184 75.8014 23.496 79.2574 23.496H85.3054V22.92C85.3054 21.288 84.8414 20.088 83.9134 19.32C82.9854 18.552 81.8334 18.168 80.4574 18.168C79.2094 18.168 78.1214 18.472 77.1934 19.08C76.2654 19.656 75.6894 20.52 75.4654 21.672H69.4654C69.6254 19.944 70.2014 18.44 71.1934 17.16C72.2174 15.88 73.5294 14.904 75.1294 14.232C76.7294 13.528 78.5214 13.176 80.5054 13.176C83.8974 13.176 86.5694 14.024 88.5214 15.72C90.4734 17.416 91.4494 19.816 91.4494 22.92V37.56H86.2174L85.6414 33.72C84.9374 35 83.9454 36.056 82.6654 36.888C81.4174 37.72 79.8014 38.136 77.8174 38.136ZM79.2094 33.336C80.9694 33.336 82.3294 32.76 83.2894 31.608C84.2814 30.456 84.9054 29.032 85.1614 27.336H79.9294C78.2974 27.336 77.1294 27.64 76.4254 28.248C75.7214 28.824 75.3694 29.544 75.3694 30.408C75.3694 31.336 75.7214 32.056 76.4254 32.568C77.1294 33.08 78.0574 33.336 79.2094 33.336Z" stroke="white" stroke-width="6" mask="url(#path-1-outside-1)"/>
<path d="M103.153 38.136C101.041 38.136 99.1845 37.8 97.5845 37.128C95.9845 36.424 94.7045 35.464 93.7445 34.248C92.7845 33.032 92.2085 31.624 92.0165 30.024H98.2085C98.4005 30.952 98.9125 31.752 99.7445 32.424C100.608 33.064 101.713 33.384 103.057 33.384C104.401 33.384 105.377 33.112 105.985 32.568C106.625 32.024 106.945 31.4 106.945 30.696C106.945 29.672 106.497 28.984 105.601 28.632C104.705 28.248 103.456 27.88 101.856 27.528C100.832 27.304 99.7925 27.032 98.7365 26.712C97.6805 26.392 96.7045 25.992 95.8085 25.512C94.9445 25 94.2405 24.36 93.6965 23.592C93.1525 22.792 92.8805 21.816 92.8805 20.664C92.8805 18.552 93.7125 16.776 95.3765 15.336C97.0725 13.896 99.4405 13.176 102.48 13.176C105.296 13.176 107.536 13.832 109.201 15.144C110.897 16.456 111.905 18.264 112.225 20.568H106.417C106.065 18.808 104.737 17.928 102.433 17.928C101.281 17.928 100.384 18.152 99.7445 18.6C99.1365 19.048 98.8325 19.608 98.8325 20.28C98.8325 20.984 99.2965 21.544 100.225 21.96C101.153 22.376 102.385 22.76 103.921 23.112C105.585 23.496 107.104 23.928 108.48 24.408C109.888 24.856 111.008 25.544 111.84 26.472C112.672 27.368 113.089 28.664 113.089 30.36C113.121 31.832 112.737 33.16 111.937 34.344C111.137 35.528 109.984 36.456 108.48 37.128C106.976 37.8 105.201 38.136 103.153 38.136Z" stroke="white" stroke-width="6" mask="url(#path-1-outside-1)"/>
<path d="M124.371 38.136C122.259 38.136 120.403 37.8 118.803 37.128C117.203 36.424 115.923 35.464 114.963 34.248C114.003 33.032 113.427 31.624 113.235 30.024H119.427C119.619 30.952 120.131 31.752 120.963 32.424C121.827 33.064 122.931 33.384 124.275 33.384C125.619 33.384 126.595 33.112 127.203 32.568C127.843 32.024 128.163 31.4 128.163 30.696C128.163 29.672 127.715 28.984 126.819 28.632C125.923 28.248 124.675 27.88 123.075 27.528C122.051 27.304 121.011 27.032 119.955 26.712C118.899 26.392 117.923 25.992 117.027 25.512C116.163 25 115.459 24.36 114.915 23.592C114.371 22.792 114.099 21.816 114.099 20.664C114.099 18.552 114.931 16.776 116.595 15.336C118.291 13.896 120.659 13.176 123.699 13.176C126.515 13.176 128.755 13.832 130.419 15.144C132.115 16.456 133.123 18.264 133.443 20.568H127.635C127.283 18.808 125.955 17.928 123.651 17.928C122.499 17.928 121.603 18.152 120.963 18.6C120.355 19.048 120.051 19.608 120.051 20.28C120.051 20.984 120.515 21.544 121.443 21.96C122.371 22.376 123.603 22.76 125.139 23.112C126.803 23.496 128.323 23.928 129.699 24.408C131.107 24.856 132.227 25.544 133.059 26.472C133.891 27.368 134.307 28.664 134.307 30.36C134.339 31.832 133.955 33.16 133.155 34.344C132.355 35.528 131.203 36.456 129.699 37.128C128.195 37.8 126.419 38.136 124.371 38.136Z" stroke="white" stroke-width="6" mask="url(#path-1-outside-1)"/>
<path d="M3 37.56V13.752H8.472L9.048 18.216C9.912 16.68 11.08 15.464 12.552 14.568C14.056 13.64 15.816 13.176 17.832 13.176V19.656H16.104C14.76 19.656 13.56 19.864 12.504 20.28C11.448 20.696 10.616 21.416 10.008 22.44C9.432 23.464 9.144 24.888 9.144 26.712V37.56H3Z" fill="black"/>
<path d="M29.1774 38.136C26.7774 38.136 24.6494 37.624 22.7934 36.6C20.9374 35.576 19.4814 34.136 18.4254 32.28C17.3694 30.424 16.8414 28.28 16.8414 25.848C16.8414 23.384 17.3534 21.192 18.3774 19.272C19.4334 17.352 20.8734 15.864 22.6974 14.808C24.5534 13.72 26.7294 13.176 29.2254 13.176C31.5614 13.176 33.6254 13.688 35.4174 14.712C37.2094 15.736 38.6014 17.144 39.5934 18.936C40.6174 20.696 41.1294 22.664 41.1294 24.84C41.1294 25.192 41.1134 25.56 41.0814 25.944C41.0814 26.328 41.0654 26.728 41.0334 27.144H22.9374C23.0654 29 23.7054 30.456 24.8574 31.512C26.0414 32.568 27.4654 33.096 29.1294 33.096C30.3774 33.096 31.4174 32.824 32.2494 32.28C33.1134 31.704 33.7534 30.968 34.1694 30.072H40.4094C39.9614 31.576 39.2094 32.952 38.1534 34.2C37.1294 35.416 35.8494 36.376 34.3134 37.08C32.8094 37.784 31.0974 38.136 29.1774 38.136ZM29.2254 18.168C27.7214 18.168 26.3934 18.6 25.2414 19.464C24.0894 20.296 23.3534 21.576 23.0334 23.304H34.8894C34.7934 21.736 34.2174 20.488 33.1614 19.56C32.1054 18.632 30.7934 18.168 29.2254 18.168Z" fill="black"/>
<path d="M56.4089 38.136C54.6169 38.136 53.0489 37.8 51.7049 37.128C50.3609 36.456 49.2729 35.512 48.4409 34.296L47.7689 37.56H42.2969V3H48.4409V17.16C49.2089 16.104 50.2169 15.176 51.4649 14.376C52.7449 13.576 54.3929 13.176 56.4089 13.176C58.6489 13.176 60.6489 13.72 62.4089 14.808C64.1689 15.896 65.5609 17.384 66.5849 19.272C67.6089 21.16 68.1209 23.304 68.1209 25.704C68.1209 28.104 67.6089 30.248 66.5849 32.136C65.5609 33.992 64.1689 35.464 62.4089 36.552C60.6489 37.608 58.6489 38.136 56.4089 38.136ZM55.1129 32.76C57.0649 32.76 58.6809 32.104 59.9609 30.792C61.2409 29.48 61.8809 27.784 61.8809 25.704C61.8809 23.624 61.2409 21.912 59.9609 20.568C58.6809 19.224 57.0649 18.552 55.1129 18.552C53.1289 18.552 51.4969 19.224 50.2169 20.568C48.9689 21.88 48.3449 23.576 48.3449 25.656C48.3449 27.736 48.9689 29.448 50.2169 30.792C51.4969 32.104 53.1289 32.76 55.1129 32.76Z" fill="black"/>
<path d="M77.8174 38.136C75.7694 38.136 74.0894 37.816 72.7774 37.176C71.4654 36.504 70.4894 35.624 69.8494 34.536C69.2094 33.448 68.8894 32.248 68.8894 30.936C68.8894 28.728 69.7534 26.936 71.4814 25.56C73.2094 24.184 75.8014 23.496 79.2574 23.496H85.3054V22.92C85.3054 21.288 84.8414 20.088 83.9134 19.32C82.9854 18.552 81.8334 18.168 80.4574 18.168C79.2094 18.168 78.1214 18.472 77.1934 19.08C76.2654 19.656 75.6894 20.52 75.4654 21.672H69.4654C69.6254 19.944 70.2014 18.44 71.1934 17.16C72.2174 15.88 73.5294 14.904 75.1294 14.232C76.7294 13.528 78.5214 13.176 80.5054 13.176C83.8974 13.176 86.5694 14.024 88.5214 15.72C90.4734 17.416 91.4494 19.816 91.4494 22.92V37.56H86.2174L85.6414 33.72C84.9374 35 83.9454 36.056 82.6654 36.888C81.4174 37.72 79.8014 38.136 77.8174 38.136ZM79.2094 33.336C80.9694 33.336 82.3294 32.76 83.2894 31.608C84.2814 30.456 84.9054 29.032 85.1614 27.336H79.9294C78.2974 27.336 77.1294 27.64 76.4254 28.248C75.7214 28.824 75.3694 29.544 75.3694 30.408C75.3694 31.336 75.7214 32.056 76.4254 32.568C77.1294 33.08 78.0574 33.336 79.2094 33.336Z" fill="black"/>
<path d="M103.153 38.136C101.041 38.136 99.1845 37.8 97.5845 37.128C95.9845 36.424 94.7045 35.464 93.7445 34.248C92.7845 33.032 92.2085 31.624 92.0165 30.024H98.2085C98.4005 30.952 98.9125 31.752 99.7445 32.424C100.608 33.064 101.713 33.384 103.057 33.384C104.401 33.384 105.377 33.112 105.985 32.568C106.625 32.024 106.945 31.4 106.945 30.696C106.945 29.672 106.497 28.984 105.601 28.632C104.705 28.248 103.456 27.88 101.856 27.528C100.832 27.304 99.7925 27.032 98.7365 26.712C97.6805 26.392 96.7045 25.992 95.8085 25.512C94.9445 25 94.2405 24.36 93.6965 23.592C93.1525 22.792 92.8805 21.816 92.8805 20.664C92.8805 18.552 93.7125 16.776 95.3765 15.336C97.0725 13.896 99.4405 13.176 102.48 13.176C105.296 13.176 107.536 13.832 109.201 15.144C110.897 16.456 111.905 18.264 112.225 20.568H106.417C106.065 18.808 104.737 17.928 102.433 17.928C101.281 17.928 100.384 18.152 99.7445 18.6C99.1365 19.048 98.8325 19.608 98.8325 20.28C98.8325 20.984 99.2965 21.544 100.225 21.96C101.153 22.376 102.385 22.76 103.921 23.112C105.585 23.496 107.104 23.928 108.48 24.408C109.888 24.856 111.008 25.544 111.84 26.472C112.672 27.368 113.089 28.664 113.089 30.36C113.121 31.832 112.737 33.16 111.937 34.344C111.137 35.528 109.984 36.456 108.48 37.128C106.976 37.8 105.201 38.136 103.153 38.136Z" fill="black"/>
<path d="M124.371 38.136C122.259 38.136 120.403 37.8 118.803 37.128C117.203 36.424 115.923 35.464 114.963 34.248C114.003 33.032 113.427 31.624 113.235 30.024H119.427C119.619 30.952 120.131 31.752 120.963 32.424C121.827 33.064 122.931 33.384 124.275 33.384C125.619 33.384 126.595 33.112 127.203 32.568C127.843 32.024 128.163 31.4 128.163 30.696C128.163 29.672 127.715 28.984 126.819 28.632C125.923 28.248 124.675 27.88 123.075 27.528C122.051 27.304 121.011 27.032 119.955 26.712C118.899 26.392 117.923 25.992 117.027 25.512C116.163 25 115.459 24.36 114.915 23.592C114.371 22.792 114.099 21.816 114.099 20.664C114.099 18.552 114.931 16.776 116.595 15.336C118.291 13.896 120.659 13.176 123.699 13.176C126.515 13.176 128.755 13.832 130.419 15.144C132.115 16.456 133.123 18.264 133.443 20.568H127.635C127.283 18.808 125.955 17.928 123.651 17.928C122.499 17.928 121.603 18.152 120.963 18.6C120.355 19.048 120.051 19.608 120.051 20.28C120.051 20.984 120.515 21.544 121.443 21.96C122.371 22.376 123.603 22.76 125.139 23.112C126.803 23.496 128.323 23.928 129.699 24.408C131.107 24.856 132.227 25.544 133.059 26.472C133.891 27.368 134.307 28.664 134.307 30.36C134.339 31.832 133.955 33.16 133.155 34.344C132.355 35.528 131.203 36.456 129.699 37.128C128.195 37.8 126.419 38.136 124.371 38.136Z" fill="black"/>
</svg>
