<svg width="138" height="42" viewBox="0 0 138 42" fill="none" xmlns="http://www.w3.org/2000/svg">
<path d="M61 28.0294C61 31.4243 58.5376 34.1764 55.5 34.1764C52.4624 34.1764 50 31.4243 50 28.0294C50 24.6345 52.4624 21.8823 55.5 21.8823C58.5376 21.8823 61 24.6345 61 28.0294Z" fill="black"/>
<mask id="path-2-outside-1" maskUnits="userSpaceOnUse" x="0.119995" y="0.440002" width="138" height="42" fill="black">
<rect fill="white" x="0.119995" y="0.440002" width="138" height="42"/>
<path d="M3.12 38V14.192H8.592L9.168 18.656C10.032 17.12 11.2 15.904 12.672 15.008C14.176 14.08 15.936 13.616 17.952 13.616V20.096H16.224C14.88 20.096 13.68 20.304 12.624 20.72C11.568 21.136 10.736 21.856 10.128 22.88C9.552 23.904 9.264 25.328 9.264 27.152V38H3.12Z"/>
<path d="M29.2974 38.576C26.8974 38.576 24.7694 38.064 22.9134 37.04C21.0574 36.016 19.6014 34.576 18.5454 32.72C17.4894 30.864 16.9614 28.72 16.9614 26.288C16.9614 23.824 17.4734 21.632 18.4974 19.712C19.5534 17.792 20.9934 16.304 22.8174 15.248C24.6734 14.16 26.8494 13.616 29.3454 13.616C31.6814 13.616 33.7454 14.128 35.5374 15.152C37.3294 16.176 38.7214 17.584 39.7134 19.376C40.7374 21.136 41.2494 23.104 41.2494 25.28C41.2494 25.632 41.2334 26 41.2014 26.384C41.2014 26.768 41.1854 27.168 41.1534 27.584H23.0574C23.1854 29.44 23.8254 30.896 24.9774 31.952C26.1614 33.008 27.5854 33.536 29.2494 33.536C30.4974 33.536 31.5374 33.264 32.3694 32.72C33.2334 32.144 33.8734 31.408 34.2894 30.512H40.5294C40.0814 32.016 39.3294 33.392 38.2734 34.64C37.2494 35.856 35.9694 36.816 34.4334 37.52C32.9294 38.224 31.2174 38.576 29.2974 38.576ZM29.3454 18.608C27.8414 18.608 26.5134 19.04 25.3614 19.904C24.2094 20.736 23.4734 22.016 23.1534 23.744H35.0094C34.9134 22.176 34.3374 20.928 33.2814 20C32.2254 19.072 30.9134 18.608 29.3454 18.608Z"/>
<path d="M56.5289 38.576C54.7369 38.576 53.1689 38.24 51.8249 37.568C50.4809 36.896 49.3929 35.952 48.5609 34.736L47.8889 38H42.4169V3.44H48.5609V17.6C49.3289 16.544 50.3369 15.616 51.5849 14.816C52.8649 14.016 54.5129 13.616 56.5289 13.616C58.7689 13.616 60.7689 14.16 62.5289 15.248C64.2889 16.336 65.6809 17.824 66.7049 19.712C67.7289 21.6 68.2409 23.744 68.2409 26.144C68.2409 28.544 67.7289 30.688 66.7049 32.576C65.6809 34.432 64.2889 35.904 62.5289 36.992C60.7689 38.048 58.7689 38.576 56.5289 38.576ZM55.2329 33.2C57.1849 33.2 58.8009 32.544 60.0809 31.232C61.3609 29.92 62.0009 28.224 62.0009 26.144C62.0009 24.064 61.3609 22.352 60.0809 21.008C58.8009 19.664 57.1849 18.992 55.2329 18.992C53.2489 18.992 51.6169 19.664 50.3369 21.008C49.0889 22.32 48.4649 24.016 48.4649 26.096C48.4649 28.176 49.0889 29.888 50.3369 31.232C51.6169 32.544 53.2489 33.2 55.2329 33.2Z"/>
<path d="M77.9374 38.576C75.8894 38.576 74.2094 38.256 72.8974 37.616C71.5854 36.944 70.6094 36.064 69.9694 34.976C69.3294 33.888 69.0094 32.688 69.0094 31.376C69.0094 29.168 69.8734 27.376 71.6014 26C73.3294 24.624 75.9214 23.936 79.3774 23.936H85.4254V23.36C85.4254 21.728 84.9614 20.528 84.0334 19.76C83.1054 18.992 81.9534 18.608 80.5774 18.608C79.3294 18.608 78.2414 18.912 77.3134 19.52C76.3854 20.096 75.8094 20.96 75.5854 22.112H69.5854C69.7454 20.384 70.3214 18.88 71.3134 17.6C72.3374 16.32 73.6494 15.344 75.2494 14.672C76.8494 13.968 78.6414 13.616 80.6254 13.616C84.0174 13.616 86.6894 14.464 88.6414 16.16C90.5934 17.856 91.5694 20.256 91.5694 23.36V38H86.3374L85.7614 34.16C85.0574 35.44 84.0654 36.496 82.7854 37.328C81.5374 38.16 79.9214 38.576 77.9374 38.576ZM79.3294 33.776C81.0894 33.776 82.4494 33.2 83.4094 32.048C84.4014 30.896 85.0254 29.472 85.2814 27.776H80.0494C78.4174 27.776 77.2494 28.08 76.5454 28.688C75.8414 29.264 75.4894 29.984 75.4894 30.848C75.4894 31.776 75.8414 32.496 76.5454 33.008C77.2494 33.52 78.1774 33.776 79.3294 33.776Z"/>
<path d="M103.272 38.576C101.16 38.576 99.3045 38.24 97.7045 37.568C96.1045 36.864 94.8245 35.904 93.8645 34.688C92.9045 33.472 92.3285 32.064 92.1365 30.464H98.3285C98.5205 31.392 99.0325 32.192 99.8645 32.864C100.728 33.504 101.832 33.824 103.176 33.824C104.521 33.824 105.496 33.552 106.104 33.008C106.744 32.464 107.064 31.84 107.064 31.136C107.064 30.112 106.617 29.424 105.72 29.072C104.824 28.688 103.576 28.32 101.976 27.968C100.952 27.744 99.9125 27.472 98.8565 27.152C97.8005 26.832 96.8245 26.432 95.9285 25.952C95.0645 25.44 94.3605 24.8 93.8165 24.032C93.2725 23.232 93.0005 22.256 93.0005 21.104C93.0005 18.992 93.8325 17.216 95.4965 15.776C97.1925 14.336 99.5605 13.616 102.6 13.616C105.416 13.616 107.656 14.272 109.32 15.584C111.016 16.896 112.024 18.704 112.344 21.008H106.536C106.185 19.248 104.856 18.368 102.552 18.368C101.4 18.368 100.504 18.592 99.8645 19.04C99.2565 19.488 98.9525 20.048 98.9525 20.72C98.9525 21.424 99.4165 21.984 100.344 22.4C101.272 22.816 102.504 23.2 104.04 23.552C105.704 23.936 107.224 24.368 108.6 24.848C110.008 25.296 111.128 25.984 111.96 26.912C112.792 27.808 113.208 29.104 113.208 30.8C113.24 32.272 112.856 33.6 112.056 34.784C111.257 35.968 110.104 36.896 108.6 37.568C107.096 38.24 105.32 38.576 103.272 38.576Z"/>
<path d="M124.491 38.576C122.379 38.576 120.523 38.24 118.923 37.568C117.323 36.864 116.043 35.904 115.083 34.688C114.123 33.472 113.547 32.064 113.355 30.464H119.547C119.739 31.392 120.251 32.192 121.083 32.864C121.947 33.504 123.051 33.824 124.395 33.824C125.739 33.824 126.715 33.552 127.323 33.008C127.963 32.464 128.283 31.84 128.283 31.136C128.283 30.112 127.835 29.424 126.939 29.072C126.043 28.688 124.795 28.32 123.195 27.968C122.171 27.744 121.131 27.472 120.075 27.152C119.019 26.832 118.043 26.432 117.147 25.952C116.283 25.44 115.579 24.8 115.035 24.032C114.491 23.232 114.219 22.256 114.219 21.104C114.219 18.992 115.051 17.216 116.715 15.776C118.411 14.336 120.779 13.616 123.819 13.616C126.635 13.616 128.875 14.272 130.539 15.584C132.235 16.896 133.243 18.704 133.563 21.008H127.755C127.403 19.248 126.075 18.368 123.771 18.368C122.619 18.368 121.723 18.592 121.083 19.04C120.475 19.488 120.171 20.048 120.171 20.72C120.171 21.424 120.635 21.984 121.563 22.4C122.491 22.816 123.723 23.2 125.259 23.552C126.923 23.936 128.443 24.368 129.819 24.848C131.227 25.296 132.347 25.984 133.179 26.912C134.011 27.808 134.427 29.104 134.427 30.8C134.459 32.272 134.075 33.6 133.275 34.784C132.475 35.968 131.323 36.896 129.819 37.568C128.315 38.24 126.539 38.576 124.491 38.576Z"/>
</mask>
<path d="M3.12 38V14.192H8.592L9.168 18.656C10.032 17.12 11.2 15.904 12.672 15.008C14.176 14.08 15.936 13.616 17.952 13.616V20.096H16.224C14.88 20.096 13.68 20.304 12.624 20.72C11.568 21.136 10.736 21.856 10.128 22.88C9.552 23.904 9.264 25.328 9.264 27.152V38H3.12Z" fill="black"/>
<path d="M29.2974 38.576C26.8974 38.576 24.7694 38.064 22.9134 37.04C21.0574 36.016 19.6014 34.576 18.5454 32.72C17.4894 30.864 16.9614 28.72 16.9614 26.288C16.9614 23.824 17.4734 21.632 18.4974 19.712C19.5534 17.792 20.9934 16.304 22.8174 15.248C24.6734 14.16 26.8494 13.616 29.3454 13.616C31.6814 13.616 33.7454 14.128 35.5374 15.152C37.3294 16.176 38.7214 17.584 39.7134 19.376C40.7374 21.136 41.2494 23.104 41.2494 25.28C41.2494 25.632 41.2334 26 41.2014 26.384C41.2014 26.768 41.1854 27.168 41.1534 27.584H23.0574C23.1854 29.44 23.8254 30.896 24.9774 31.952C26.1614 33.008 27.5854 33.536 29.2494 33.536C30.4974 33.536 31.5374 33.264 32.3694 32.72C33.2334 32.144 33.8734 31.408 34.2894 30.512H40.5294C40.0814 32.016 39.3294 33.392 38.2734 34.64C37.2494 35.856 35.9694 36.816 34.4334 37.52C32.9294 38.224 31.2174 38.576 29.2974 38.576ZM29.3454 18.608C27.8414 18.608 26.5134 19.04 25.3614 19.904C24.2094 20.736 23.4734 22.016 23.1534 23.744H35.0094C34.9134 22.176 34.3374 20.928 33.2814 20C32.2254 19.072 30.9134 18.608 29.3454 18.608Z" fill="black"/>
<path d="M56.5289 38.576C54.7369 38.576 53.1689 38.24 51.8249 37.568C50.4809 36.896 49.3929 35.952 48.5609 34.736L47.8889 38H42.4169V3.44H48.5609V17.6C49.3289 16.544 50.3369 15.616 51.5849 14.816C52.8649 14.016 54.5129 13.616 56.5289 13.616C58.7689 13.616 60.7689 14.16 62.5289 15.248C64.2889 16.336 65.6809 17.824 66.7049 19.712C67.7289 21.6 68.2409 23.744 68.2409 26.144C68.2409 28.544 67.7289 30.688 66.7049 32.576C65.6809 34.432 64.2889 35.904 62.5289 36.992C60.7689 38.048 58.7689 38.576 56.5289 38.576ZM55.2329 33.2C57.1849 33.2 58.8009 32.544 60.0809 31.232C61.3609 29.92 62.0009 28.224 62.0009 26.144C62.0009 24.064 61.3609 22.352 60.0809 21.008C58.8009 19.664 57.1849 18.992 55.2329 18.992C53.2489 18.992 51.6169 19.664 50.3369 21.008C49.0889 22.32 48.4649 24.016 48.4649 26.096C48.4649 28.176 49.0889 29.888 50.3369 31.232C51.6169 32.544 53.2489 33.2 55.2329 33.2Z" fill="black"/>
<path d="M77.9374 38.576C75.8894 38.576 74.2094 38.256 72.8974 37.616C71.5854 36.944 70.6094 36.064 69.9694 34.976C69.3294 33.888 69.0094 32.688 69.0094 31.376C69.0094 29.168 69.8734 27.376 71.6014 26C73.3294 24.624 75.9214 23.936 79.3774 23.936H85.4254V23.36C85.4254 21.728 84.9614 20.528 84.0334 19.76C83.1054 18.992 81.9534 18.608 80.5774 18.608C79.3294 18.608 78.2414 18.912 77.3134 19.52C76.3854 20.096 75.8094 20.96 75.5854 22.112H69.5854C69.7454 20.384 70.3214 18.88 71.3134 17.6C72.3374 16.32 73.6494 15.344 75.2494 14.672C76.8494 13.968 78.6414 13.616 80.6254 13.616C84.0174 13.616 86.6894 14.464 88.6414 16.16C90.5934 17.856 91.5694 20.256 91.5694 23.36V38H86.3374L85.7614 34.16C85.0574 35.44 84.0654 36.496 82.7854 37.328C81.5374 38.16 79.9214 38.576 77.9374 38.576ZM79.3294 33.776C81.0894 33.776 82.4494 33.2 83.4094 32.048C84.4014 30.896 85.0254 29.472 85.2814 27.776H80.0494C78.4174 27.776 77.2494 28.08 76.5454 28.688C75.8414 29.264 75.4894 29.984 75.4894 30.848C75.4894 31.776 75.8414 32.496 76.5454 33.008C77.2494 33.52 78.1774 33.776 79.3294 33.776Z" fill="black"/>
<path d="M103.272 38.576C101.16 38.576 99.3045 38.24 97.7045 37.568C96.1045 36.864 94.8245 35.904 93.8645 34.688C92.9045 33.472 92.3285 32.064 92.1365 30.464H98.3285C98.5205 31.392 99.0325 32.192 99.8645 32.864C100.728 33.504 101.832 33.824 103.176 33.824C104.521 33.824 105.496 33.552 106.104 33.008C106.744 32.464 107.064 31.84 107.064 31.136C107.064 30.112 106.617 29.424 105.72 29.072C104.824 28.688 103.576 28.32 101.976 27.968C100.952 27.744 99.9125 27.472 98.8565 27.152C97.8005 26.832 96.8245 26.432 95.9285 25.952C95.0645 25.44 94.3605 24.8 93.8165 24.032C93.2725 23.232 93.0005 22.256 93.0005 21.104C93.0005 18.992 93.8325 17.216 95.4965 15.776C97.1925 14.336 99.5605 13.616 102.6 13.616C105.416 13.616 107.656 14.272 109.32 15.584C111.016 16.896 112.024 18.704 112.344 21.008H106.536C106.185 19.248 104.856 18.368 102.552 18.368C101.4 18.368 100.504 18.592 99.8645 19.04C99.2565 19.488 98.9525 20.048 98.9525 20.72C98.9525 21.424 99.4165 21.984 100.344 22.4C101.272 22.816 102.504 23.2 104.04 23.552C105.704 23.936 107.224 24.368 108.6 24.848C110.008 25.296 111.128 25.984 111.96 26.912C112.792 27.808 113.208 29.104 113.208 30.8C113.24 32.272 112.856 33.6 112.056 34.784C111.257 35.968 110.104 36.896 108.6 37.568C107.096 38.24 105.32 38.576 103.272 38.576Z" fill="black"/>
<path d="M124.491 38.576C122.379 38.576 120.523 38.24 118.923 37.568C117.323 36.864 116.043 35.904 115.083 34.688C114.123 33.472 113.547 32.064 113.355 30.464H119.547C119.739 31.392 120.251 32.192 121.083 32.864C121.947 33.504 123.051 33.824 124.395 33.824C125.739 33.824 126.715 33.552 127.323 33.008C127.963 32.464 128.283 31.84 128.283 31.136C128.283 30.112 127.835 29.424 126.939 29.072C126.043 28.688 124.795 28.32 123.195 27.968C122.171 27.744 121.131 27.472 120.075 27.152C119.019 26.832 118.043 26.432 117.147 25.952C116.283 25.44 115.579 24.8 115.035 24.032C114.491 23.232 114.219 22.256 114.219 21.104C114.219 18.992 115.051 17.216 116.715 15.776C118.411 14.336 120.779 13.616 123.819 13.616C126.635 13.616 128.875 14.272 130.539 15.584C132.235 16.896 133.243 18.704 133.563 21.008H127.755C127.403 19.248 126.075 18.368 123.771 18.368C122.619 18.368 121.723 18.592 121.083 19.04C120.475 19.488 120.171 20.048 120.171 20.72C120.171 21.424 120.635 21.984 121.563 22.4C122.491 22.816 123.723 23.2 125.259 23.552C126.923 23.936 128.443 24.368 129.819 24.848C131.227 25.296 132.347 25.984 133.179 26.912C134.011 27.808 134.427 29.104 134.427 30.8C134.459 32.272 134.075 33.6 133.275 34.784C132.475 35.968 131.323 36.896 129.819 37.568C128.315 38.24 126.539 38.576 124.491 38.576Z" fill="black"/>
<path d="M3.12 38V14.192H8.592L9.168 18.656C10.032 17.12 11.2 15.904 12.672 15.008C14.176 14.08 15.936 13.616 17.952 13.616V20.096H16.224C14.88 20.096 13.68 20.304 12.624 20.72C11.568 21.136 10.736 21.856 10.128 22.88C9.552 23.904 9.264 25.328 9.264 27.152V38H3.12Z" stroke="black" stroke-width="6" mask="url(#path-2-outside-1)"/>
<path d="M29.2974 38.576C26.8974 38.576 24.7694 38.064 22.9134 37.04C21.0574 36.016 19.6014 34.576 18.5454 32.72C17.4894 30.864 16.9614 28.72 16.9614 26.288C16.9614 23.824 17.4734 21.632 18.4974 19.712C19.5534 17.792 20.9934 16.304 22.8174 15.248C24.6734 14.16 26.8494 13.616 29.3454 13.616C31.6814 13.616 33.7454 14.128 35.5374 15.152C37.3294 16.176 38.7214 17.584 39.7134 19.376C40.7374 21.136 41.2494 23.104 41.2494 25.28C41.2494 25.632 41.2334 26 41.2014 26.384C41.2014 26.768 41.1854 27.168 41.1534 27.584H23.0574C23.1854 29.44 23.8254 30.896 24.9774 31.952C26.1614 33.008 27.5854 33.536 29.2494 33.536C30.4974 33.536 31.5374 33.264 32.3694 32.72C33.2334 32.144 33.8734 31.408 34.2894 30.512H40.5294C40.0814 32.016 39.3294 33.392 38.2734 34.64C37.2494 35.856 35.9694 36.816 34.4334 37.52C32.9294 38.224 31.2174 38.576 29.2974 38.576ZM29.3454 18.608C27.8414 18.608 26.5134 19.04 25.3614 19.904C24.2094 20.736 23.4734 22.016 23.1534 23.744H35.0094C34.9134 22.176 34.3374 20.928 33.2814 20C32.2254 19.072 30.9134 18.608 29.3454 18.608Z" stroke="black" stroke-width="6" mask="url(#path-2-outside-1)"/>
<path d="M56.5289 38.576C54.7369 38.576 53.1689 38.24 51.8249 37.568C50.4809 36.896 49.3929 35.952 48.5609 34.736L47.8889 38H42.4169V3.44H48.5609V17.6C49.3289 16.544 50.3369 15.616 51.5849 14.816C52.8649 14.016 54.5129 13.616 56.5289 13.616C58.7689 13.616 60.7689 14.16 62.5289 15.248C64.2889 16.336 65.6809 17.824 66.7049 19.712C67.7289 21.6 68.2409 23.744 68.2409 26.144C68.2409 28.544 67.7289 30.688 66.7049 32.576C65.6809 34.432 64.2889 35.904 62.5289 36.992C60.7689 38.048 58.7689 38.576 56.5289 38.576ZM55.2329 33.2C57.1849 33.2 58.8009 32.544 60.0809 31.232C61.3609 29.92 62.0009 28.224 62.0009 26.144C62.0009 24.064 61.3609 22.352 60.0809 21.008C58.8009 19.664 57.1849 18.992 55.2329 18.992C53.2489 18.992 51.6169 19.664 50.3369 21.008C49.0889 22.32 48.4649 24.016 48.4649 26.096C48.4649 28.176 49.0889 29.888 50.3369 31.232C51.6169 32.544 53.2489 33.2 55.2329 33.2Z" stroke="black" stroke-width="6" mask="url(#path-2-outside-1)"/>
<path d="M77.9374 38.576C75.8894 38.576 74.2094 38.256 72.8974 37.616C71.5854 36.944 70.6094 36.064 69.9694 34.976C69.3294 33.888 69.0094 32.688 69.0094 31.376C69.0094 29.168 69.8734 27.376 71.6014 26C73.3294 24.624 75.9214 23.936 79.3774 23.936H85.4254V23.36C85.4254 21.728 84.9614 20.528 84.0334 19.76C83.1054 18.992 81.9534 18.608 80.5774 18.608C79.3294 18.608 78.2414 18.912 77.3134 19.52C76.3854 20.096 75.8094 20.96 75.5854 22.112H69.5854C69.7454 20.384 70.3214 18.88 71.3134 17.6C72.3374 16.32 73.6494 15.344 75.2494 14.672C76.8494 13.968 78.6414 13.616 80.6254 13.616C84.0174 13.616 86.6894 14.464 88.6414 16.16C90.5934 17.856 91.5694 20.256 91.5694 23.36V38H86.3374L85.7614 34.16C85.0574 35.44 84.0654 36.496 82.7854 37.328C81.5374 38.16 79.9214 38.576 77.9374 38.576ZM79.3294 33.776C81.0894 33.776 82.4494 33.2 83.4094 32.048C84.4014 30.896 85.0254 29.472 85.2814 27.776H80.0494C78.4174 27.776 77.2494 28.08 76.5454 28.688C75.8414 29.264 75.4894 29.984 75.4894 30.848C75.4894 31.776 75.8414 32.496 76.5454 33.008C77.2494 33.52 78.1774 33.776 79.3294 33.776Z" stroke="black" stroke-width="6" mask="url(#path-2-outside-1)"/>
<path d="M103.272 38.576C101.16 38.576 99.3045 38.24 97.7045 37.568C96.1045 36.864 94.8245 35.904 93.8645 34.688C92.9045 33.472 92.3285 32.064 92.1365 30.464H98.3285C98.5205 31.392 99.0325 32.192 99.8645 32.864C100.728 33.504 101.832 33.824 103.176 33.824C104.521 33.824 105.496 33.552 106.104 33.008C106.744 32.464 107.064 31.84 107.064 31.136C107.064 30.112 106.617 29.424 105.72 29.072C104.824 28.688 103.576 28.32 101.976 27.968C100.952 27.744 99.9125 27.472 98.8565 27.152C97.8005 26.832 96.8245 26.432 95.9285 25.952C95.0645 25.44 94.3605 24.8 93.8165 24.032C93.2725 23.232 93.0005 22.256 93.0005 21.104C93.0005 18.992 93.8325 17.216 95.4965 15.776C97.1925 14.336 99.5605 13.616 102.6 13.616C105.416 13.616 107.656 14.272 109.32 15.584C111.016 16.896 112.024 18.704 112.344 21.008H106.536C106.185 19.248 104.856 18.368 102.552 18.368C101.4 18.368 100.504 18.592 99.8645 19.04C99.2565 19.488 98.9525 20.048 98.9525 20.72C98.9525 21.424 99.4165 21.984 100.344 22.4C101.272 22.816 102.504 23.2 104.04 23.552C105.704 23.936 107.224 24.368 108.6 24.848C110.008 25.296 111.128 25.984 111.96 26.912C112.792 27.808 113.208 29.104 113.208 30.8C113.24 32.272 112.856 33.6 112.056 34.784C111.257 35.968 110.104 36.896 108.6 37.568C107.096 38.24 105.32 38.576 103.272 38.576Z" stroke="black" stroke-width="6" mask="url(#path-2-outside-1)"/>
<path d="M124.491 38.576C122.379 38.576 120.523 38.24 118.923 37.568C117.323 36.864 116.043 35.904 115.083 34.688C114.123 33.472 113.547 32.064 113.355 30.464H119.547C119.739 31.392 120.251 32.192 121.083 32.864C121.947 33.504 123.051 33.824 124.395 33.824C125.739 33.824 126.715 33.552 127.323 33.008C127.963 32.464 128.283 31.84 128.283 31.136C128.283 30.112 127.835 29.424 126.939 29.072C126.043 28.688 124.795 28.32 123.195 27.968C122.171 27.744 121.131 27.472 120.075 27.152C119.019 26.832 118.043 26.432 117.147 25.952C116.283 25.44 115.579 24.8 115.035 24.032C114.491 23.232 114.219 22.256 114.219 21.104C114.219 18.992 115.051 17.216 116.715 15.776C118.411 14.336 120.779 13.616 123.819 13.616C126.635 13.616 128.875 14.272 130.539 15.584C132.235 16.896 133.243 18.704 133.563 21.008H127.755C127.403 19.248 126.075 18.368 123.771 18.368C122.619 18.368 121.723 18.592 121.083 19.04C120.475 19.488 120.171 20.048 120.171 20.72C120.171 21.424 120.635 21.984 121.563 22.4C122.491 22.816 123.723 23.2 125.259 23.552C126.923 23.936 128.443 24.368 129.819 24.848C131.227 25.296 132.347 25.984 133.179 26.912C134.011 27.808 134.427 29.104 134.427 30.8C134.459 32.272 134.075 33.6 133.275 34.784C132.475 35.968 131.323 36.896 129.819 37.568C128.315 38.24 126.539 38.576 124.491 38.576Z" stroke="black" stroke-width="6" mask="url(#path-2-outside-1)"/>
<path d="M3.12 38V14.192H8.592L9.168 18.656C10.032 17.12 11.2 15.904 12.672 15.008C14.176 14.08 15.936 13.616 17.952 13.616V20.096H16.224C14.88 20.096 13.68 20.304 12.624 20.72C11.568 21.136 10.736 21.856 10.128 22.88C9.552 23.904 9.264 25.328 9.264 27.152V38H3.12Z" fill="white"/>
<path d="M29.2974 38.576C26.8974 38.576 24.7694 38.064 22.9134 37.04C21.0574 36.016 19.6014 34.576 18.5454 32.72C17.4894 30.864 16.9614 28.72 16.9614 26.288C16.9614 23.824 17.4734 21.632 18.4974 19.712C19.5534 17.792 20.9934 16.304 22.8174 15.248C24.6734 14.16 26.8494 13.616 29.3454 13.616C31.6814 13.616 33.7454 14.128 35.5374 15.152C37.3294 16.176 38.7214 17.584 39.7134 19.376C40.7374 21.136 41.2494 23.104 41.2494 25.28C41.2494 25.632 41.2334 26 41.2014 26.384C41.2014 26.768 41.1854 27.168 41.1534 27.584H23.0574C23.1854 29.44 23.8254 30.896 24.9774 31.952C26.1614 33.008 27.5854 33.536 29.2494 33.536C30.4974 33.536 31.5374 33.264 32.3694 32.72C33.2334 32.144 33.8734 31.408 34.2894 30.512H40.5294C40.0814 32.016 39.3294 33.392 38.2734 34.64C37.2494 35.856 35.9694 36.816 34.4334 37.52C32.9294 38.224 31.2174 38.576 29.2974 38.576ZM29.3454 18.608C27.8414 18.608 26.5134 19.04 25.3614 19.904C24.2094 20.736 23.4734 22.016 23.1534 23.744H35.0094C34.9134 22.176 34.3374 20.928 33.2814 20C32.2254 19.072 30.9134 18.608 29.3454 18.608Z" fill="white"/>
<path d="M56.5289 38.576C54.7369 38.576 53.1689 38.24 51.8249 37.568C50.4809 36.896 49.3929 35.952 48.5609 34.736L47.8889 38H42.4169V3.44H48.5609V17.6C49.3289 16.544 50.3369 15.616 51.5849 14.816C52.8649 14.016 54.5129 13.616 56.5289 13.616C58.7689 13.616 60.7689 14.16 62.5289 15.248C64.2889 16.336 65.6809 17.824 66.7049 19.712C67.7289 21.6 68.2409 23.744 68.2409 26.144C68.2409 28.544 67.7289 30.688 66.7049 32.576C65.6809 34.432 64.2889 35.904 62.5289 36.992C60.7689 38.048 58.7689 38.576 56.5289 38.576ZM55.2329 33.2C57.1849 33.2 58.8009 32.544 60.0809 31.232C61.3609 29.92 62.0009 28.224 62.0009 26.144C62.0009 24.064 61.3609 22.352 60.0809 21.008C58.8009 19.664 57.1849 18.992 55.2329 18.992C53.2489 18.992 51.6169 19.664 50.3369 21.008C49.0889 22.32 48.4649 24.016 48.4649 26.096C48.4649 28.176 49.0889 29.888 50.3369 31.232C51.6169 32.544 53.2489 33.2 55.2329 33.2Z" fill="white"/>
<path d="M77.9374 38.576C75.8894 38.576 74.2094 38.256 72.8974 37.616C71.5854 36.944 70.6094 36.064 69.9694 34.976C69.3294 33.888 69.0094 32.688 69.0094 31.376C69.0094 29.168 69.8734 27.376 71.6014 26C73.3294 24.624 75.9214 23.936 79.3774 23.936H85.4254V23.36C85.4254 21.728 84.9614 20.528 84.0334 19.76C83.1054 18.992 81.9534 18.608 80.5774 18.608C79.3294 18.608 78.2414 18.912 77.3134 19.52C76.3854 20.096 75.8094 20.96 75.5854 22.112H69.5854C69.7454 20.384 70.3214 18.88 71.3134 17.6C72.3374 16.32 73.6494 15.344 75.2494 14.672C76.8494 13.968 78.6414 13.616 80.6254 13.616C84.0174 13.616 86.6894 14.464 88.6414 16.16C90.5934 17.856 91.5694 20.256 91.5694 23.36V38H86.3374L85.7614 34.16C85.0574 35.44 84.0654 36.496 82.7854 37.328C81.5374 38.16 79.9214 38.576 77.9374 38.576ZM79.3294 33.776C81.0894 33.776 82.4494 33.2 83.4094 32.048C84.4014 30.896 85.0254 29.472 85.2814 27.776H80.0494C78.4174 27.776 77.2494 28.08 76.5454 28.688C75.8414 29.264 75.4894 29.984 75.4894 30.848C75.4894 31.776 75.8414 32.496 76.5454 33.008C77.2494 33.52 78.1774 33.776 79.3294 33.776Z" fill="white"/>
<path d="M103.272 38.576C101.16 38.576 99.3045 38.24 97.7045 37.568C96.1045 36.864 94.8245 35.904 93.8645 34.688C92.9045 33.472 92.3285 32.064 92.1365 30.464H98.3285C98.5205 31.392 99.0325 32.192 99.8645 32.864C100.728 33.504 101.832 33.824 103.176 33.824C104.521 33.824 105.496 33.552 106.104 33.008C106.744 32.464 107.064 31.84 107.064 31.136C107.064 30.112 106.617 29.424 105.72 29.072C104.824 28.688 103.576 28.32 101.976 27.968C100.952 27.744 99.9125 27.472 98.8565 27.152C97.8005 26.832 96.8245 26.432 95.9285 25.952C95.0645 25.44 94.3605 24.8 93.8165 24.032C93.2725 23.232 93.0005 22.256 93.0005 21.104C93.0005 18.992 93.8325 17.216 95.4965 15.776C97.1925 14.336 99.5605 13.616 102.6 13.616C105.416 13.616 107.656 14.272 109.32 15.584C111.016 16.896 112.024 18.704 112.344 21.008H106.536C106.185 19.248 104.856 18.368 102.552 18.368C101.4 18.368 100.504 18.592 99.8645 19.04C99.2565 19.488 98.9525 20.048 98.9525 20.72C98.9525 21.424 99.4165 21.984 100.344 22.4C101.272 22.816 102.504 23.2 104.04 23.552C105.704 23.936 107.224 24.368 108.6 24.848C110.008 25.296 111.128 25.984 111.96 26.912C112.792 27.808 113.208 29.104 113.208 30.8C113.24 32.272 112.856 33.6 112.056 34.784C111.257 35.968 110.104 36.896 108.6 37.568C107.096 38.24 105.32 38.576 103.272 38.576Z" fill="white"/>
<path d="M124.491 38.576C122.379 38.576 120.523 38.24 118.923 37.568C117.323 36.864 116.043 35.904 115.083 34.688C114.123 33.472 113.547 32.064 113.355 30.464H119.547C119.739 31.392 120.251 32.192 121.083 32.864C121.947 33.504 123.051 33.824 124.395 33.824C125.739 33.824 126.715 33.552 127.323 33.008C127.963 32.464 128.283 31.84 128.283 31.136C128.283 30.112 127.835 29.424 126.939 29.072C126.043 28.688 124.795 28.32 123.195 27.968C122.171 27.744 121.131 27.472 120.075 27.152C119.019 26.832 118.043 26.432 117.147 25.952C116.283 25.44 115.579 24.8 115.035 24.032C114.491 23.232 114.219 22.256 114.219 21.104C114.219 18.992 115.051 17.216 116.715 15.776C118.411 14.336 120.779 13.616 123.819 13.616C126.635 13.616 128.875 14.272 130.539 15.584C132.235 16.896 133.243 18.704 133.563 21.008H127.755C127.403 19.248 126.075 18.368 123.771 18.368C122.619 18.368 121.723 18.592 121.083 19.04C120.475 19.488 120.171 20.048 120.171 20.72C120.171 21.424 120.635 21.984 121.563 22.4C122.491 22.816 123.723 23.2 125.259 23.552C126.923 23.936 128.443 24.368 129.819 24.848C131.227 25.296 132.347 25.984 133.179 26.912C134.011 27.808 134.427 29.104 134.427 30.8C134.459 32.272 134.075 33.6 133.275 34.784C132.475 35.968 131.323 36.896 129.819 37.568C128.315 38.24 126.539 38.576 124.491 38.576Z" fill="white"/>
</svg>
