<svg width="24" height="24" viewBox="0 0 24 24" fill="none" xmlns="http://www.w3.org/2000/svg">
<path d="M0.927381 6.60491C0.415157 6.60491 0 7.02007 0 7.53229V16.4677C0 16.9799 0.415157 17.3951 0.927381 17.3951C1.4396 17.3951 1.85476 16.9799 1.85476 16.4677V7.53229C1.85476 7.02007 1.4396 6.60491 0.927381 6.60491Z" fill="#14CC9E"/>
<path d="M5.35645 3.92511C4.84423 3.92511 4.42907 4.34026 4.42907 4.85249V19.1476C4.42907 19.6598 4.84423 20.0749 5.35645 20.0749C5.86868 20.0749 6.28383 19.6598 6.28383 19.1476V4.85249C6.28383 4.34026 5.86868 3.92511 5.35645 3.92511Z" fill="#14CC9E"/>
<path d="M9.78552 0.195374C9.27329 0.195374 8.85814 0.610531 8.85814 1.12275V22.8772C8.85814 23.3894 9.27329 23.8045 9.78552 23.8045C10.2977 23.8045 10.7129 23.3894 10.7129 22.8772V1.12275C10.7129 0.610634 10.2977 0.195374 9.78552 0.195374Z" fill="#14CC9E"/>
<path d="M14.2145 5.60149C13.7023 5.60149 13.2871 6.01665 13.2871 6.52887V17.4713C13.2871 17.9835 13.7023 18.3986 14.2145 18.3986C14.7267 18.3986 15.1419 17.9835 15.1419 17.4713V6.52887C15.1419 6.01665 14.7267 5.60149 14.2145 5.60149Z" fill="#14CC9E"/>
<path d="M18.6436 6.60491C18.1313 6.60491 17.7162 7.02007 17.7162 7.53229V16.4677C17.7162 16.9799 18.1313 17.3951 18.6436 17.3951C19.1558 17.3951 19.5709 16.9799 19.5709 16.4677V7.53229C19.5709 7.02007 19.1557 6.60491 18.6436 6.60491Z" fill="#14CC9E"/>
<path d="M23.0726 9.57458C22.5604 9.57458 22.1452 9.98974 22.1452 10.502V13.4981C22.1452 14.0104 22.5604 14.4255 23.0726 14.4255C23.5848 14.4255 24 14.0104 24 13.4981V10.502C24 9.98974 23.5848 9.57458 23.0726 9.57458Z" fill="#14CC9E"/>
</svg>
